<svg xmlns="http://www.w3.org/2000/svg" width="800" height="521" viewBox="0 0 800 521"><g fill="#0065CD"><path d="M96.591 214.424l13.721-27.613c5.633 4.716 12.675 8.782 21.125 12.203s15.517 5.129 21.202 5.129c5.943 0 8.915-1.917 8.915-5.753 0-1.708-.827-3.197-2.48-4.467s-3.824-2.268-6.512-2.994c-2.688-.726-5.762-1.556-9.225-2.487-3.463-.934-6.99-1.865-10.582-2.799-3.592-.932-7.119-2.266-10.582-4.002-3.463-1.736-6.538-3.716-9.225-5.945-2.688-2.229-4.858-5.183-6.512-8.863-1.654-3.679-2.48-7.85-2.48-12.513 0-11.095 4.302-19.892 12.907-26.394 8.605-6.502 20.168-9.753 34.69-9.753 8.683 0 17.339 1.185 25.97 3.556 8.63 2.371 16.124 5.567 22.48 9.587l-13.333 27.901c-6.15-3.42-12.933-6.452-20.349-9.094-7.416-2.644-13.398-3.965-17.946-3.965s-6.822 1.556-6.822 4.664c0 1.451.659 2.746 1.977 3.886 1.318 1.142 3.088 2.1 5.311 2.878 2.222.777 4.768 1.541 7.636 2.292s5.904 1.581 9.108 2.487c3.204.907 6.396 1.93 9.574 3.07s6.202 2.616 9.07 4.43c2.868 1.813 5.414 3.874 7.636 6.181 2.223 2.306 3.992 5.22 5.311 8.743 1.317 3.524 1.977 7.438 1.977 11.736 0 4.8-.827 9.185-2.48 13.158-1.654 3.973-3.915 7.327-6.783 10.063-2.868 2.734-6.279 5.044-10.233 6.925-3.954 1.884-8.217 3.264-12.791 4.142-4.574.875-9.419 1.315-14.535 1.315-9.819 0-19.742-1.572-29.768-4.716-10.029-3.145-18.685-7.473-25.972-12.988zM213.924 231.042v-111.319h36.9v43.179h34.419v-43.179h36.899v111.319h-36.899v-40.155h-34.419v40.155h-36.9zM333.738 231.042l46.978-111.319h37.752l45.272 111.319h-39.226l-5.581-15.736h-41.706l-5.737 15.736h-37.752zm53.024-42.093h23.179l-11.474-32.559-11.705 32.559zM475.336 231.042v-111.319h53.876c15.091 0 26.771 3.462 35.039 10.388 8.27 6.925 12.403 16.744 12.403 29.458 0 16.331-5.865 28.088-17.597 35.271l21.86 36.202h-41.551l-13.333-28.915h-13.799v28.915h-36.898zm36.899-56.822h16.977c3.979 0 7.055-1.176 9.226-3.527 2.17-2.352 3.256-5.672 3.256-9.961 0-4.135-1.099-7.339-3.295-9.613s-5.259-3.411-9.187-3.411h-16.977v26.512zM595.692 231.042v-111.319h94.187v27.985h-57.287v13.566h52.017v27.985h-52.017v13.798h58.683v27.985h-95.583zM25.893 416.264v-160.932h129.252v40.457h-75.985v27.793h71.172v40.457h-71.172v52.225h-53.267z"/></g><g fill="#0065CD"><path d="M78.813 225.7v-145.532h641.661v145.532h52.921v-198.452h-747.502v198.452zM25.893 440.689v52.92h747.502v-52.92"/></g><path fill="#0065CD" d="M636.045 357.725c0-19.299 4.968-34.701 14.913-46.207 9.941-11.505 23.288-17.256 40.026-17.256 13.308 0 24.167 4.859 32.571 14.587v-57.231h50.553v169.239h-50.553v-12.587c-8.117 9.577-18.495 14.367-31.144 14.367-17.032 0-30.683-5.901-40.963-17.7-10.267-11.806-15.403-27.541-15.403-47.212zm56.037-16.199c-3.362 4.417-5.045 10.264-5.045 17.534 0 7.275 1.683 13.118 5.045 17.535 3.366 4.417 7.823 6.625 13.379 6.625 5.481 0 9.871-2.208 13.162-6.625s4.933-10.26 4.933-17.535c0-7.271-1.642-13.117-4.933-17.534s-7.681-6.628-13.162-6.628c-5.556 0-10.013 2.211-13.379 6.628z"/><g fill-rule="evenodd" clip-rule="evenodd" fill="#0065CD"><path d="M241.757 269.598c-3.908-10.469-13.7-15.17-28.905-14.137 3.996-3.822 14.087-5.395 23.647-3.627 8.167 1.51 15.717 4.516 22.495 9.966-1.764-14.63 1.161-19.751 9.062-36.938 4.885 11.893 11.857 22.846 8.501 36.783 14.848-9.854 29.976-13.984 46.657-6.516-12.515-.883-23.174 1.797-29.354 14.302 17.62 2.761 24.829 8.473 27.338 21.89-9.829-5.771-20.181-8.256-30.959-8.154.386 4.264.743 8.221 1.103 12.173l-.649.983c-15.126-14.094-30.173-14.027-45.146-.173l-.997-.568c.312-3.974.625-7.944.974-12.413-10.659-.049-21.044 2.213-30.721 8.104 1.49-12.67 10.893-20.183 26.954-21.675zM271.39 400.56c3.924-3.896 8.435-8.362 13.143-13.026 4.273 4.722 8.585 9.489 12.875 14.225-3.766 3.767-8.319 8.308-12.967 12.939-4.211-4.561-8.585-9.3-13.051-14.138zM280.839 344.317c-4.22 4.491-8.561 9.116-13.051 13.896-4.575-4.758-9.034-9.396-13.282-13.816 4.241-4.367 8.726-8.985 13.33-13.729 4.445 4.666 8.827 9.266 13.003 13.649zM251.833 350.026c4.003 4.183 8.396 8.772 12.771 13.343-4.338 4.293-8.917 8.824-13.574 13.44-4.21-4.402-8.603-8.986-12.83-13.398 4.139-4.06 8.709-8.553 13.633-13.385zM302.267 330.949c4.187 4.404 8.573 9.014 12.792 13.455-4.186 4.368-8.646 9.029-13.198 13.771-4.498-4.722-8.87-9.318-12.977-13.632 4.032-4.094 8.539-8.678 13.383-13.594zM251.486 338.923l-13.415-13.76c4.077-4.266 8.466-8.86 13.074-13.678l12.742 14.212c-3.651 3.898-8.07 8.607-12.401 13.226zM250.831 414.475c-4.367-4.429-8.821-8.94-12.87-13.05 4.217-4.596 8.513-9.286 12.874-14.047 4.714 4.926 9.168 9.567 13.115 13.686-4.132 4.221-8.698 8.888-13.119 13.411zM285.114 312.03c4.189 4.237 8.65 8.751 13.048 13.204-4.534 4.581-9.078 9.176-13.6 13.75l-13.409-13.535c4.482-4.305 9.12-8.764 13.961-13.419zM246.938 344.872c-3.884 4.065-8.271 8.652-12.449 13.019-4.73-4.712-9.301-9.257-13.879-13.819 4.151-4.205 8.613-8.728 13.13-13.308 4.474 4.78 8.873 9.488 13.198 14.108zM280.8 382.917c-4.02 4.093-8.468 8.624-12.916 13.156-4.609-4.674-9.118-9.251-13.653-13.844 4.257-4.303 8.72-8.806 13.242-13.376 4.412 4.652 8.813 9.3 13.327 14.064zM267.473 317.889c-4.348-4.618-8.763-9.309-13.012-13.827 4.133-4.345 8.506-8.944 12.91-13.571 4.621 4.792 9.075 9.411 13.369 13.866l-13.267 13.532zM284.484 377.129c-4.397-4.645-8.765-9.264-13.091-13.837 4.259-4.115 8.873-8.569 13.585-13.117 3.954 4.144 8.39 8.785 12.657 13.256-4.079 4.251-8.542 8.898-13.151 13.698zM302.291 369.192c4.002 3.925 8.371 8.198 13.14 12.872-4.538 4.825-8.939 9.506-13.505 14.36-4.605-4.968-8.921-9.622-12.95-13.963 4.008-3.991 8.57-8.536 13.315-13.269zM220.475 382.249c4.819-4.762 9.149-9.045 13.368-13.218 4.483 4.609 8.968 9.225 13.387 13.76-4.02 4.141-8.437 8.692-13.252 13.653-4.567-4.797-8.996-9.454-13.503-14.195zM230.748 364.871c-3.905 3.718-8.683 8.269-13.464 12.82-4.663-5.565-5.002-19.975-.83-27.727 4.699 4.904 9.486 9.894 14.294 14.907zM304.379 364.264l14.14-14.632c4.835 4.839 4.903 21.57.073 28.176-4.778-4.545-9.541-9.09-14.213-13.544zM254.006 420.236c4.78-5.193 9.115-9.899 13.659-14.835 4.761 4.98 9.199 9.619 14.061 14.699-9.403 2.898-18.148 3.002-27.72.136zM287.649 303.452c4.582-3.961 10.712-3.508 15.357 1.911 3.942 4.598 3.597 10.029-.743 13.636-4.84-5.15-9.677-10.295-14.614-15.547zM248.941 304.034c-5.026 5.1-9.915 10.06-14.818 15.039-4.572-2.58-5.447-7.675-2.099-12.669 4.149-6.186 11.069-7.105 16.917-2.37zM232.092 403.944c5.608 5.63 10.447 10.488 14.961 15.014-4.473 1.347-16.13-3.692-17.545-8.89-.467-1.717 1.687-4.157 2.584-6.124zM288.445 419.297c4.721-4.816 9.503-9.7 14.429-14.726 5.173 2.972 5.43 5.859-.029 9.709-4.467 3.14-9.387 5.165-14.4 5.017zM230.036 400.233l-4.932 4.318c-5.595-4.521-8.361-9.987-8.106-18.03 4.599 4.839 8.59 9.036 13.038 13.712zM310.508 404.465c-1.578-1.386-3.033-2.662-4.751-4.167 4.252-4.509 8.319-8.814 12.526-13.269 1.493 5.73-1.746 12.988-7.775 17.436zM314.845 335.588c-3.75-3.303-7.496-6.603-11.246-9.903 4.69-5.361 6.993-5.247 10.188.948 1.312 2.542 1.633 5.599 2.408 8.422l-1.35.533zM232.521 325.376c-4.024 3.547-7.847 6.914-11.778 10.38-1.286-5.126.738-10.689 4.908-13.32.757-.479 2.263-.315 3.159.104 1.266.6 2.293 1.715 3.711 2.836z"/></g><g fill-rule="evenodd" clip-rule="evenodd" fill="#0065CD"><path d="M496.467 297.357c-24.28 0-48.558-.026-72.834.052-1.712.006-2.668-.802-3.505-1.914-1.405-1.866-1.989-4.077-2.167-6.384-.297-3.903.711-7.482 2.31-11.049 2.629-5.862 6.957-10.246 11.599-14.444 3.708-3.351 7.904-5.989 12.339-8.199 7.5-3.74 15.43-6.38 23.624-8.107 3.656-.772 7.406-1.163 11.134-1.565 2.878-.31 5.782-.383 8.68-.532 3.523-.185 7.048-.476 10.571-.47 3.692.003 7.387.232 11.069.487 6.793.466 13.566 1.247 20.126 3.101 5 1.412 10.098 2.62 14.762 5.07 3.466 1.819 7.083 3.378 10.426 5.395 3.586 2.163 6.968 4.678 9.816 7.814 3.837 4.22 7.471 8.604 9.451 14.041 1.87 5.131 1.957 10.235-1.134 15.018-.675 1.047-1.557 1.732-3.059 1.729-24.404-.059-48.806-.041-73.208-.043zM422.887 389.726c3.007-.794 5.795-1.628 8.631-2.267 2.916-.659 5.781-.821 8.01 1.821 2.148 2.559 4.594 4.703 7.739 6.047 2.29.976 4.59.994 6.961.775 5.494-.498 9.525-3.831 13.715-6.938 1.211-.898 2.794-1.537 4.286-1.771 3.715-.601 7.086.401 10.2 2.598 2.965 2.093 5.362 4.922 8.831 6.369 4.716 1.977 9.086 1.428 13.191-1.434 2.532-1.771 4.845-3.863 7.429-5.537 4.177-2.713 8.637-3.068 13.033-.536 1.993 1.144 3.73 2.727 5.623 4.051 3.744 2.623 7.949 3.728 12.462 3.263 2.765-.284 5.203-1.635 7.325-3.418 1.24-1.046 2.332-2.273 3.466-3.443 1.699-1.75 3.608-2.726 6.144-2.028 2.171.602 4.377 1.06 6.573 1.551.64.148 1.309.277 1.957.259 1.099-.039 1.548.329 1.531 1.512-.058 4.341-.21 8.701.035 13.029.204 3.604-.771 6.776-2.558 9.748-1.299 2.164-3.459 3.404-5.746 4.315-2.403.949-4.91 1.317-7.529 1.317-38.983-.038-77.963 0-116.946-.064-4.674-.013-8.82-1.705-11.721-5.613-1.66-2.242-2.568-4.884-2.643-7.643-.143-5.258-.035-10.523-.029-15.788 0-.124.042-.246.03-.175zM570.938 354.569v15.25h-148.768v-15.252h1.27c21.35 0 42.7.013 64.051-.024 1.779-.003 2.855 1.24 4.229 1.944 1.324.679 2.548 1.553 3.782 2.389.7.479 1.324.462 2.024.02 1.541-.976 3.205-1.789 4.636-2.905 1.563-1.22 3.229-1.45 5.126-1.447 20.721.04 41.447.026 62.171.026l1.479-.001zM496.695 301.166c24.655.001 49.31-.005 73.961.032.769.001 1.674.274 2.284.729 1.989 1.474 4.069 2.914 4.596 5.626.239 1.229-.416 3.07-1.45 3.774-2.254 1.534-4.67 1.915-7.325 1.265-2.907-.714-5.817-1.484-8.773-1.862-3.11-.397-6.127.044-8.442 2.602-1.289 1.425-2.604 2.857-4.073 4.09-3.043 2.553-6.479 3.005-10.266 1.762-3.229-1.06-5.888-3.002-8.521-5.02-2.258-1.729-4.68-2.912-7.571-3.308-5.604-.767-10.139 1.462-14.386 4.679-1.554 1.178-2.972 2.557-4.609 3.59-4.361 2.757-7.433 2.552-11.531-.42-3.133-2.273-5.898-5.106-9.587-6.52-1.628-.621-3.395-.877-5.104-1.29-2.073-.501-4.096-.049-6.095.417-2.697.628-4.79 2.311-6.86 4.039-3.266 2.723-6.941 4.652-11.296 4.459-3.417-.154-6.095-2.01-8.165-4.684-1.983-2.559-4.429-4.281-7.749-4.474-3.314-.194-6.415.909-9.577 1.644-2.9.674-5.714.941-8.54-.604-1.566-.856-2.184-2.981-1.809-4.332.817-2.942 3.075-4.647 5.578-6.068.358-.202.895-.121 1.35-.121 24.652-.005 49.306-.005 73.96-.005zM496.66 373.765c24.612 0 49.226-.006 73.841.032.889.007 1.929.304 2.633.825 1.944 1.447 3.935 2.92 4.441 5.563.2 1.033-.504 3.004-1.366 3.611-2.232 1.576-4.648 2.054-7.329 1.401-2.917-.704-5.837-1.453-8.799-1.925-3.081-.491-5.972.181-8.298 2.441-1.414 1.37-2.678 2.914-4.173 4.187-3.844 3.269-8.146 3.204-12.378 1.015-2.7-1.396-5.109-3.347-7.671-5.02-1.912-1.254-3.94-2.151-6.263-2.487-5.714-.84-10.336 1.467-14.651 4.78-1.314 1.015-2.552 2.119-3.893 3.088-1.856 1.344-3.872 2.384-6.247 2.391-2.313.006-4.202-1.138-5.965-2.43-2.897-2.125-5.514-4.632-8.812-6.201-1.929-.917-3.886-1.473-6.054-1.66-3.34-.297-6.438.232-9.257 1.957-1.687 1.027-3.13 2.448-4.751 3.599-3.021 2.145-6.335 3.708-10.113 3.417-3.421-.258-6.138-2.021-8.205-4.806-.652-.879-1.443-1.738-2.351-2.333-2.455-1.621-5.101-2.551-8.137-1.841-3.211.75-6.435 1.447-9.677 2.042-2.439.445-4.639-.427-6.509-1.906-1.075-.859-1.215-2.319-.885-3.553.788-2.927 3.056-4.639 5.549-6.045.391-.227.979-.136 1.476-.136 24.616-.006 49.232-.006 73.844-.006zM422.146 328.901v-11.74c3.153-.812 6.145-1.751 9.203-2.31 2.184-.399 4.561-1.096 6.605.541 1.133.907 2.251 1.878 3.185 2.981 3.275 3.856 7.49 5.502 12.429 5.275 3.498-.159 6.638-1.495 9.496-3.53 2.287-1.626 4.529-3.377 7-4.669 2.658-1.389 5.568-1.272 8.392-.137 3.246 1.307 5.813 3.54 8.439 5.791 3.269 2.801 7.174 4.472 11.6 3.789 2.881-.447 5.475-1.8 7.723-3.734 2.726-2.347 5.465-4.662 8.905-5.983 2.448-.941 8.178-.497 10.646 1.618 3.007 2.584 6.194 5.049 10.116 6.144 5.85 1.633 11.102.665 15.526-3.784 1.573-1.579 2.878-3.519 5.1-4.341.495-.181 1.034-.346 1.551-.348 2.581-.006 5.042.662 7.507 1.344 1.695.47 3.437.793 5.313 1.216v11.877h-148.736zM482.399 351.274h-1.102c-18.476-.002-36.948-.003-55.42-.002-4.483.002-8.398-3.301-9.319-7.209-1.082-4.612 1.829-9.299 5.775-10.785.41-.153.901-.133 1.354-.133 8.986-.006 17.972.049 26.958-.048 1.902-.02 3.431.552 4.98 1.512 5.656 3.503 11.351 6.941 17.028 10.407 3.275 1.997 6.545 4.002 9.816 6.006l-.07.252zM510.361 351.013c4.28-2.594 8.557-5.192 12.843-7.779 5.155-3.114 10.308-6.242 15.495-9.303.742-.44 1.688-.756 2.545-.761 9.354-.053 18.715-.057 28.068.007.898.006 1.916.361 2.672.867 2.81 1.885 4.806 4.405 4.632 7.97-.274 5.531-4.361 9.211-9.616 9.231-18.214.073-36.425.027-54.639.027h-1.957l-.043-.259zM461.092 333.226h70.53l.119.283c-1.725 1.018-3.453 2.021-5.168 3.053-5.378 3.231-10.736 6.492-16.124 9.71-3.479 2.078-6.996 4.097-10.488 6.159-.953.563-1.841 1.243-2.816 1.762-.326.173-.92.172-1.233-.015-7.323-4.355-14.619-8.753-21.933-13.125-3.682-2.198-7.39-4.348-11.078-6.534-.531-.315-1.008-.715-1.809-1.293z"/></g></svg>